<?xml version="1.0" standalone="no"?>
<!DOCTYPE svg PUBLIC "-//W3C//DTD SVG 20010904//EN"
 "http://www.w3.org/TR/2001/REC-SVG-20010904/DTD/svg10.dtd">
<svg version="1.0" xmlns="http://www.w3.org/2000/svg"
 width="512.000000pt" height="512.000000pt" viewBox="0 0 512.000000 512.000000"
 preserveAspectRatio="xMidYMid meet">
<metadata>
Created by potrace 1.16, written by Peter Selinger 2001-2019
</metadata>
<g transform="translate(0.000000,512.000000) scale(0.100000,-0.100000)"
fill="#000000" stroke="none">
<path d="M1666 4205 c-46 -16 -104 -71 -188 -175 -67 -82 -136 -149 -155 -150
-23 0 -15 -59 12 -85 13 -14 29 -25 35 -25 5 0 10 -4 10 -10 0 -5 -9 -10 -21
-10 -28 0 -19 -22 16 -39 22 -11 36 -11 57 -3 26 10 29 8 55 -36 16 -25 44
-61 65 -81 20 -20 43 -53 52 -73 12 -30 20 -38 40 -38 14 0 27 4 31 10 3 5 24
-3 48 -19 106 -70 124 -81 143 -81 21 0 56 27 72 55 11 21 59 10 67 -16 4 -13
16 -19 36 -19 28 0 29 -1 29 -49 0 -28 12 -87 26 -132 21 -68 24 -86 14 -105
-7 -12 -10 -27 -6 -32 3 -6 -5 -53 -19 -106 -14 -53 -25 -107 -25 -120 0 -51
-24 -58 -240 -72 -172 -11 -204 -15 -225 -33 l-26 -19 -83 39 c-48 22 -99 39
-119 39 -25 0 -37 5 -41 18 -2 9 -30 122 -61 250 -32 128 -63 239 -71 247 -8
7 -78 34 -156 59 -141 44 -168 46 -168 12 0 -7 45 -158 100 -336 55 -179 100
-329 99 -335 0 -9 -47 -52 -176 -162 -32 -27 -35 -33 -24 -47 12 -15 -3 -16
-161 -16 -194 0 -193 0 -217 -70 -10 -30 -9 -38 7 -60 18 -24 24 -25 141 -28
l122 -3 15 -34 c8 -19 23 -39 33 -45 11 -6 88 -10 179 -10 l159 0 5 -117 c2
-65 4 -462 4 -883 l-1 -765 -45 -7 c-30 -4 -20 -5 30 -2 41 1 218 3 393 4 204
0 317 4 317 10 0 6 -103 10 -290 10 l-290 0 0 96 0 95 29 -20 c29 -21 37 -21
977 -23 l949 -3 5 -55 c3 -31 13 -68 23 -83 9 -14 17 -29 17 -32 0 -3 -125 -5
-277 -5 -162 0 -284 -4 -293 -10 -10 -6 347 -9 1015 -8 789 1 987 3 848 11
l-182 9 -1 685 c0 484 -4 691 -11 706 -7 12 -29 39 -51 60 -30 28 -48 37 -74
37 l-35 0 24 33 c57 75 95 184 127 360 27 147 27 236 0 270 -27 34 -106 52
-163 36 -56 -15 -114 -45 -144 -75 l-24 -24 8 38 c11 53 7 157 -9 184 -11 21
-14 13 -23 -77 -5 -55 -13 -95 -16 -90 -3 6 -14 36 -24 68 -17 54 -30 75 -41
65 -2 -3 -9 -31 -14 -64 -16 -88 -17 -89 -44 -57 -20 25 -24 42 -30 151 -8
154 -35 310 -80 472 -37 132 -94 303 -95 284 -1 -6 10 -44 24 -85 77 -225 130
-480 142 -676 6 -114 6 -115 -14 -105 -34 18 -104 31 -126 23 -17 -6 -13 -10
24 -19 70 -18 107 -69 129 -177 6 -33 14 -68 16 -77 4 -13 0 -18 -14 -18 -10
0 -27 -9 -37 -20 -19 -21 -21 -50 -17 -236 2 -100 5 -115 27 -148 l24 -36
-150 0 -151 0 25 30 c34 40 65 126 78 215 21 136 -25 385 -105 575 -35 83
-236 443 -243 436 -2 -2 33 -68 78 -147 97 -170 147 -275 182 -384 43 -133 43
-160 0 -65 -49 108 -148 279 -227 395 -34 50 -74 119 -90 155 -63 145 -405
814 -412 807 -2 -2 28 -64 67 -138 112 -215 269 -528 306 -609 l34 -75 -33 40
c-66 82 -256 269 -353 348 -169 136 -351 244 -474 281 -30 9 -77 34 -106 56
-28 22 -56 40 -61 40 -5 0 -27 -14 -48 -32 -44 -36 -41 -39 -92 72 -53 114
-88 180 -102 192 -7 6 -32 15 -55 19 -23 4 -69 14 -102 23 -73 19 -89 19 -139
1z m106 -26 c11 -6 32 -13 46 -15 35 -7 41 -14 11 -14 -13 1 -35 7 -49 15 -51
29 -116 13 -186 -46 l-39 -33 35 38 c55 60 130 83 182 55z m178 -34 c17 -9 30
-17 30 -18 0 -2 -20 1 -45 7 -25 6 -45 14 -45 18 0 13 29 9 60 -7z m-171 -16
c28 -6 53 -15 56 -20 4 -5 -5 -5 -20 1 -37 14 -77 12 -99 -5 -10 -8 -24 -12
-30 -8 -6 3 -8 3 -4 -2 4 -4 -10 -28 -32 -52 -21 -25 -44 -60 -50 -80 -7 -19
-14 -32 -17 -30 -8 8 27 81 58 119 21 27 25 36 12 31 -22 -8 -108 -58 -148
-86 -22 -16 -27 -17 -16 -4 23 29 210 147 233 147 4 0 30 -5 57 -11z m192 -36
c13 -16 12 -17 -3 -4 -17 13 -22 21 -14 21 2 0 10 -8 17 -17z m34 -54 c9 -17
15 -33 13 -35 -3 -2 -12 12 -21 31 -21 43 -13 47 8 4z m-432 -51 c-11 -13 -40
-54 -66 -93 -47 -72 -88 -106 -129 -104 -18 0 -15 4 18 19 38 17 63 43 157
164 15 20 31 36 34 36 4 0 -3 -10 -14 -22z m486 -65 c17 -35 29 -63 26 -63 -5
0 -65 116 -65 126 0 12 6 2 39 -63z m-296 -24 c-33 -10 -63 -50 -63 -85 0 -10
-3 -15 -6 -11 -10 10 4 51 27 80 13 18 29 27 47 26 26 -1 26 -1 -5 -10z m479
-31 l34 -22 -35 -31 c-19 -16 -38 -29 -43 -28 -4 2 -14 -10 -22 -25 -14 -26
-82 -246 -94 -299 -5 -28 -16 -29 -41 -4 -16 16 -18 29 -14 83 6 80 25 151 58
212 33 61 93 136 111 136 7 0 28 -10 46 -22z m-418 -10 c-4 -6 -1 -9 7 -6 23
8 59 -51 59 -96 0 -61 -10 -71 -49 -52 -42 22 -39 8 6 -31 l38 -31 -1 -89 c-1
-85 -13 -133 -35 -133 -6 0 -22 9 -36 20 -14 11 -35 20 -46 20 -16 0 -17 3 -7
15 10 12 10 15 -1 15 -18 1 -73 49 -65 57 3 4 -5 25 -19 49 -30 52 -31 79 -4
124 l21 34 24 -27 c13 -16 24 -23 24 -18 0 6 8 11 19 11 23 0 33 42 19 82 -7
20 -7 32 1 42 6 7 9 15 7 17 -2 2 7 5 20 5 14 1 21 -2 18 -8z m-245 -80 c21
-25 42 -38 57 -38 24 0 24 -1 9 -30 -13 -24 -22 -30 -50 -30 -23 0 -39 -7 -48
-21 -15 -20 -16 -20 -41 23 -31 54 -32 73 -6 116 23 38 31 36 79 -20z m855
-12 c82 -37 154 -84 300 -194 248 -188 441 -416 641 -761 104 -180 171 -321
191 -406 29 -125 4 -305 -52 -366 -56 -62 -230 26 -398 201 -98 103 -121 139
-63 100 106 -71 431 -208 464 -196 20 8 9 22 -24 31 -15 3 -99 39 -188 79
-201 91 -274 120 -282 112 -3 -3 -12 -1 -20 5 -21 18 -16 5 23 -62 47 -80 154
-192 248 -259 42 -30 74 -56 71 -58 -2 -2 -36 13 -77 34 -97 51 -242 194 -326
324 -47 72 -72 100 -104 118 -24 13 -34 20 -23 17 68 -22 126 -31 168 -27 26
2 47 8 47 12 0 4 -20 16 -45 27 -25 10 -45 21 -45 25 0 3 -10 4 -22 0 -15 -4
-19 -2 -13 7 5 9 1 12 -11 10 -11 -1 -26 1 -34 4 -8 3 -68 13 -134 22 -108 15
-166 28 -166 38 0 3 7 24 16 48 8 24 30 97 48 162 l33 118 65 -88 c126 -168
209 -240 433 -373 50 -29 115 -71 147 -92 32 -23 65 -38 77 -36 20 3 19 7 -23
133 -45 133 -101 261 -119 272 -7 4 -8 -1 -3 -13 5 -10 30 -89 56 -174 27 -85
52 -164 56 -175 4 -11 -23 8 -62 44 -38 34 -112 95 -164 134 -52 39 -128 95
-168 125 -40 30 -120 100 -179 157 l-106 102 7 44 c7 48 7 48 97 99 33 19 77
49 97 68 l37 33 -40 -24 c-23 -14 -68 -38 -101 -55 l-61 -31 23 65 c55 150 12
285 -136 434 -107 109 -215 150 -318 121 -38 -11 -40 -6 -9 27 21 24 22 24 1
14 -12 -6 -43 -35 -68 -64 l-47 -52 20 55 c13 33 36 69 62 93 38 36 44 38 85
32 25 -3 78 -21 118 -40z m-401 -57 c-19 -42 -37 -103 -41 -135 l-8 -59 -17
50 c-10 27 -31 66 -47 86 -26 33 -28 39 -14 50 10 8 15 25 12 49 l-3 35 75 0
76 0 -33 -76z m-278 61 c19 -8 19 -9 -2 -9 -12 -1 -25 4 -28 9 -7 12 2 12 30
0z m678 -90 c99 -37 244 -193 281 -303 9 -26 16 -76 16 -110 0 -51 -6 -75 -35
-132 l-34 -70 3 83 c2 45 0 84 -4 87 -5 3 -16 -30 -25 -72 -49 -227 -66 -297
-95 -388 -73 -227 -139 -311 -276 -351 -90 -26 -299 -15 -414 21 -112 36 -137
50 -160 88 -36 58 -22 134 33 185 22 21 31 23 128 20 l104 -3 -52 -27 c-106
-56 -57 -62 64 -8 l61 28 11 -45 c12 -44 40 -98 48 -89 2 2 -5 31 -17 65 -11
33 -20 70 -20 81 0 36 17 21 29 -25 16 -62 54 -147 74 -164 10 -7 17 -12 17
-9 0 2 -17 49 -39 104 -21 54 -37 101 -35 103 2 2 28 -19 58 -47 62 -59 80
-67 41 -19 -14 17 -46 58 -71 89 l-45 58 20 67 c11 38 23 85 27 107 6 32 12
40 43 52 66 26 103 48 145 86 l41 38 -47 -30 c-75 -49 -158 -84 -170 -72 -19
19 -1 39 44 50 72 18 173 100 213 172 4 8 -16 -8 -46 -37 -58 -55 -167 -128
-176 -119 -9 8 -9 286 -1 321 6 23 3 20 -13 -12 -11 -23 -26 -71 -34 -105
l-14 -63 2 101 c2 91 6 107 35 166 33 67 73 106 134 133 46 20 88 18 151 -5z
m-828 -39 c-3 -5 4 -12 15 -16 11 -3 25 -15 31 -26 9 -17 5 -16 -30 7 -43 28
-52 44 -25 44 8 0 13 -4 9 -9z m69 -102 c11 -10 -11 -39 -29 -39 -10 0 -35 47
-35 66 0 5 53 -18 64 -27z m-700 -257 c28 -75 136 -425 132 -430 -3 -2 -23 54
-45 125 -22 70 -59 182 -81 247 -38 114 -42 151 -6 58z m97 1 c23 -4 31 -13
39 -44 20 -72 90 -382 90 -396 0 -8 -11 -13 -29 -13 -27 0 -31 4 -46 58 -8 31
-42 137 -73 235 -58 176 -58 178 -34 172 13 -3 37 -9 53 -12z m300 -499 c30
-9 79 -29 110 -45 31 -15 59 -25 63 -22 11 11 6 -11 -9 -37 -8 -14 -14 -44
-15 -67 l0 -43 -50 0 c-38 0 -66 9 -125 40 -93 49 -116 50 -149 8 -18 -23 -26
-28 -26 -16 0 35 43 70 93 75 32 4 47 10 47 20 0 9 -6 13 -14 10 -8 -3 -31 -9
-50 -13 -23 -4 -47 -19 -66 -40 -16 -19 -30 -29 -30 -22 1 22 54 76 90 93 l35
16 -35 -7 c-22 -4 -46 -19 -66 -42 -20 -24 -33 -32 -38 -24 -4 7 -3 12 1 12 5
0 17 16 27 35 20 37 53 63 95 75 39 12 52 11 112 -6z m300 -88 c-12 -18 -24
-54 -27 -80 l-7 -46 -43 0 c-41 0 -44 2 -44 28 0 85 35 132 97 132 l45 0 -21
-34z m2564 -45 c-58 -14 -113 -51 -165 -108 -29 -32 -47 -47 -40 -35 36 71
150 153 209 151 25 -1 24 -1 -4 -8z m-375 -61 c12 -23 25 -67 31 -98 6 -31 13
-66 16 -77 3 -13 2 -17 -5 -10 -5 6 -17 44 -27 85 -10 41 -24 90 -31 108 -18
45 -9 40 16 -8z m476 23 c14 -15 16 -30 11 -108 -7 -106 -45 -295 -77 -378
-32 -85 -78 -140 -122 -148 l-36 -6 19 36 c15 29 19 56 19 138 0 100 1 103 23
103 39 0 51 16 48 62 -1 10 -13 19 -33 23 -18 4 -44 20 -59 34 -24 24 -25 30
-14 52 7 13 18 49 25 79 18 77 26 89 73 111 52 23 100 24 123 2z m-3061 0
c-16 -3 -34 -9 -39 -14 -16 -15 -29 -10 -16 6 7 9 27 14 49 14 34 -2 34 -2 6
-6z m2673 -23 c-3 -16 -1 -30 4 -30 4 0 6 -24 4 -52 -7 -76 -8 -78 -17 -28
-12 68 -11 140 2 140 7 0 10 -12 7 -30z m-2430 -57 c-15 -2 -42 -2 -60 0 -18
2 -6 4 27 4 33 0 48 -2 33 -4z m2073 -16 c-10 -9 -11 -8 -5 6 3 10 9 15 12 12
3 -3 0 -11 -7 -18z m507 -44 c-17 -38 -33 -70 -35 -72 -8 -10 -14 9 -9 26 7
23 63 113 70 113 3 0 -9 -30 -26 -67z m-1564 26 c33 -26 25 -35 -36 -41 l-46
-5 21 33 c12 19 25 34 28 34 4 0 18 -10 33 -21z m-894 -18 c0 -15 -87 -18
-607 -20 -310 -1 -503 2 -503 8 0 5 8 12 18 14 34 9 1092 7 1092 -2z m50 -1
c13 -8 13 -10 -2 -10 -9 0 -20 5 -23 10 -8 13 5 13 25 0z m95 -39 c42 -5 51
-10 53 -28 2 -16 -3 -24 -20 -28 -13 -3 -311 -4 -663 -3 -607 3 -640 4 -643
21 -9 48 -21 47 622 46 330 -1 624 -5 651 -8z m1011 -52 c28 -26 59 -79 47
-79 -5 0 -23 23 -41 51 -39 59 -53 59 -23 0 26 -49 26 -51 2 -51 -14 0 -24 13
-35 46 -9 26 -13 50 -11 54 8 14 33 5 61 -21z m-61 -35 c8 -20 15 -40 15 -44
0 -4 -26 -11 -57 -15 -223 -26 -715 -126 -700 -142 3 -2 44 5 93 16 149 33
607 91 718 91 17 0 28 -17 55 -86 23 -59 47 -100 75 -130 l42 -43 -51 -5 c-44
-5 -420 -38 -596 -53 -65 -6 -67 -5 -120 34 -71 53 -132 83 -165 83 -26 0 -26
-1 12 -29 21 -16 55 -46 74 -67 30 -33 31 -35 5 -13 -36 32 -68 49 -91 49 -15
0 -15 -3 4 -23 12 -13 22 -27 22 -30 0 -4 -14 8 -31 27 -35 41 -164 129 -180
124 -5 -2 28 -34 75 -72 47 -38 86 -71 86 -73 0 -2 -32 13 -70 32 -117 59
-167 76 -179 61 -13 -16 57 -70 158 -120 39 -20 71 -38 71 -40 0 -7 -115 41
-183 76 l-59 29 30 -44 c33 -47 75 -82 137 -115 22 -12 36 -21 32 -22 -13 0
-108 50 -155 82 -24 17 -46 27 -49 24 -13 -13 95 -122 150 -151 31 -16 57 -36
57 -42 0 -17 -4 -16 -51 8 -23 11 -43 18 -46 16 -2 -3 1 -63 8 -133 22 -244
14 -547 -15 -566 -6 -4 -21 -8 -33 -8 -29 0 -30 -16 -2 -31 21 -11 103 -8 159
5 14 3 5 -3 -20 -15 -24 -12 -67 -25 -95 -28 -43 -6 -46 -8 -24 -14 15 -4 51
-2 80 3 67 13 73 7 15 -15 -69 -26 -120 -15 -192 43 -47 38 -60 54 -62 80 -4
37 7 41 34 11 19 -21 19 -21 25 52 7 73 -5 386 -19 504 -4 33 -7 -66 -7 -222
0 -155 -3 -285 -7 -289 -18 -17 -23 16 -25 159 -2 84 -7 287 -13 453 -10 273
-10 305 6 342 30 77 89 108 380 197 120 36 201 53 385 79 129 19 244 34 256
35 17 1 27 -8 38 -35z m-1335 -4 c-20 -13 -517 -13 -525 0 -4 7 87 10 267 10
180 0 268 -4 258 -10z m598 0 l77 -1 -133 -34 c-213 -55 -277 -92 -318 -178
-36 -80 -38 -131 -9 -397 23 -211 26 -279 23 -487 l-3 -243 32 -22 c18 -13 31
-27 30 -33 -2 -5 -46 -31 -98 -58 -70 -35 -117 -52 -180 -62 -76 -13 -87 -18
-116 -52 l-33 -36 0 750 0 750 23 25 24 26 268 4 267 4 22 26 c11 15 27 25 34
22 8 -2 48 -4 90 -4z m1850 -31 c3 39 5 42 25 37 12 -3 73 -6 135 -6 l112 0 0
-30 0 -30 -122 -2 -123 -2 123 -3 124 -4 -4 -124 c-4 -163 -5 -164 -143 -165
-55 -1 -106 -1 -112 -1 -7 1 -20 16 -30 34 -13 24 -18 65 -21 169 -5 152 4
202 22 128 l11 -45 3 44z m329 -35 c-3 -3 -12 -4 -19 -1 -8 3 -5 6 6 6 11 1
17 -2 13 -5z m-2987 -909 c0 -583 -3 -885 -10 -885 -7 0 -10 302 -10 885 0
583 3 885 10 885 7 0 10 -302 10 -885z m1700 877 c0 -5 18 -33 40 -62 42 -56
41 -69 -4 -73 -25 -2 -29 4 -55 71 l-29 72 24 0 c13 0 24 -4 24 -8z m955 -312
c-7 -12 -173 -12 -230 -1 -29 6 -3 9 98 10 90 1 136 -2 132 -9z m358 3 c-29
-2 -77 -2 -105 0 -29 2 -6 3 52 3 58 0 81 -1 53 -3z m-993 -23 c-23 -13 -156
-28 -310 -35 -184 -9 -304 -23 -348 -40 l-37 -15 23 20 c39 32 86 40 347 55
138 9 257 17 265 19 8 2 29 4 45 5 22 0 26 -2 15 -9z m1110 -56 c9 -17 21 -29
28 -26 9 3 12 -148 12 -677 l0 -681 -494 0 c-508 0 -546 3 -566 40 -6 12 -10
247 -11 617 0 329 -4 618 -8 643 -5 26 -9 -188 -11 -500 -3 -758 -14 -844 -24
-195 -4 292 -4 584 0 650 6 106 10 121 30 142 l23 23 503 -2 503 -3 15 -31z
m-1870 -67 c0 -34 6 -49 25 -67 24 -23 34 -24 174 -28 l149 -4 15 -39 c11 -27
21 -39 35 -39 25 0 32 -18 32 -79 l0 -47 -140 -69 c-76 -38 -141 -67 -143 -65
-28 35 -247 442 -247 459 0 5 19 12 43 14 23 2 45 4 50 5 4 1 7 -17 7 -41z
m-320 -35 c0 -12 -50 -33 -61 -27 -16 10 -10 23 14 28 39 7 47 7 47 -1z m1090
-197 l0 -196 -76 52 c-42 28 -77 49 -79 47 -2 -2 32 -28 75 -58 67 -47 79 -59
80 -84 0 -27 -1 -28 -22 -14 -13 8 -64 40 -114 72 l-92 59 -7 84 c-5 57 -3 89
4 96 6 6 11 25 11 43 0 27 4 32 30 37 16 4 37 18 46 32 15 22 23 25 80 25 l64
0 0 -195z m-1000 -15 c50 -91 101 -176 113 -189 20 -22 20 -23 2 -13 -47 25
-127 123 -184 227 -56 102 -59 110 -44 127 9 10 17 17 19 16 1 -2 43 -77 94
-168z m132 -12 c115 -185 189 -311 171 -293 -10 10 -261 412 -282 453 -6 12
-10 22 -7 22 2 0 56 -82 118 -182z m616 135 c-3 -15 -14 -18 -63 -18 -49 0
-60 3 -63 18 -3 15 5 17 63 17 58 0 66 -2 63 -17z m-38 -108 c0 -33 -4 -45
-15 -45 -11 0 -15 12 -15 45 0 33 4 45 15 45 11 0 15 -12 15 -45z m12 -122 c5
-67 3 -71 -20 -57 -12 8 -18 27 -20 63 -3 45 -1 51 17 51 16 0 20 -8 23 -57z
m-722 -233 c78 -129 149 -243 158 -252 8 -10 26 -18 39 -18 l23 0 -24 -47
c-29 -57 -44 -67 -121 -83 -61 -13 -105 -47 -105 -81 0 -17 -8 -19 -64 -19
l-63 0 -6 73 c-4 39 -14 95 -22 122 -16 50 -16 50 10 70 30 25 32 58 7 100
-17 27 -17 32 -4 53 11 17 16 63 20 173 3 82 6 148 7 147 2 -2 67 -109 145
-238z m660 221 c0 -26 -32 -50 -140 -105 l-89 -47 -15 29 -15 29 67 31 c205
94 192 89 192 63z m-498 -197 c24 -21 54 -47 68 -56 l25 -17 -48 0 -47 -1 -53
83 c-62 96 -107 173 -107 182 0 3 27 -29 59 -72 33 -44 79 -97 103 -119z m836
-19 l3 -68 -98 103 c-171 179 -177 208 -20 107 l112 -73 3 -69z m-298 140 c16
-9 37 -29 46 -46 24 -47 103 -119 159 -144 95 -44 94 -38 40 -146 -57 -113
-120 -212 -170 -268 l-37 -41 -161 0 -160 0 46 31 c47 31 55 43 37 54 -15 9
-12 25 4 25 7 0 20 -10 28 -21 l14 -21 50 25 c81 41 81 43 38 144 -44 103 -77
158 -104 175 -11 7 -20 22 -20 33 0 26 -36 84 -57 92 -11 4 19 24 98 64 63 32
115 58 117 58 2 1 16 -6 32 -14z m154 -90 c44 -41 77 -77 73 -81 -10 -11 -91
42 -130 85 -34 38 -48 71 -29 71 4 0 43 -34 86 -75z m-499 -155 c11 0 31 7 43
16 26 18 27 18 36 -12 5 -18 -2 -28 -43 -58 -27 -20 -53 -36 -58 -36 -7 0 -73
101 -73 113 0 3 17 -1 38 -9 20 -7 46 -13 57 -14z m-148 -67 c19 -30 32 -57
29 -61 -9 -8 -19 5 -57 72 -40 73 -21 65 28 -11z m801 -167 l-3 -161 -114 -3
-113 -3 36 48 c46 61 128 201 158 269 20 45 24 49 31 32 4 -12 6 -93 5 -182z
m-478 163 c0 -7 -16 -27 -36 -45 -26 -25 -45 -34 -70 -34 -30 0 -38 -6 -70
-55 -21 -30 -39 -53 -41 -51 -2 2 12 29 31 59 25 39 45 59 68 66 18 7 49 25
68 41 38 32 50 36 50 19z m-914 -175 c42 -11 97 3 122 31 18 22 22 23 22 8 -1
-24 -39 -50 -91 -62 -50 -11 -61 -6 -109 45 l-35 38 33 -27 c19 -15 45 -30 58
-33z m-126 16 c0 -14 -14 -12 -28 2 -19 19 -14 30 8 18 11 -6 20 -15 20 -20z
m-80 -30 c-8 -5 -31 -9 -50 -9 -29 0 -31 2 -15 9 11 5 34 9 50 9 23 1 26 -2
15 -9z m763 -61 c-13 -13 -144 -29 -137 -17 3 4 24 8 47 8 23 0 53 6 67 13 28
15 40 13 23 -4z m-814 7 c-2 -2 -56 -6 -119 -9 -65 -3 -97 -2 -75 2 41 8 202
14 194 7z m1011 -56 c-19 -11 -39 -19 -45 -19 -5 0 6 8 25 19 19 11 40 19 45
19 6 0 -6 -8 -25 -19z m-743 -16 c5 -15 -269 -35 -392 -28 -175 10 -150 19 43
16 121 -2 201 2 252 12 81 15 92 15 97 0z"/>
<path d="M2210 3815 c-7 -9 -10 -18 -7 -21 3 -3 10 4 17 15 13 25 8 27 -10 6z"/>
<path d="M1796 3822 c-6 -10 51 -82 65 -82 5 0 9 11 9 25 0 40 -57 84 -74 57z"/>
<path d="M1271 2769 c-24 -5 -46 -11 -50 -14 -9 -10 103 7 114 16 11 11 -3 10
-64 -2z"/>
<path d="M3190 1224 c0 -8 5 -12 10 -9 6 3 10 10 10 16 0 5 -4 9 -10 9 -5 0
-10 -7 -10 -16z"/>
<path d="M2970 3926 c0 -3 66 -26 147 -51 465 -147 692 -307 871 -610 81 -137
144 -321 161 -465 l8 -75 2 57 c3 150 -83 392 -206 577 -162 243 -408 402
-814 524 -134 40 -169 49 -169 43z"/>
</g>
</svg>