<?xml version="1.0" standalone="no"?>
<!DOCTYPE svg PUBLIC "-//W3C//DTD SVG 20010904//EN"
 "http://www.w3.org/TR/2001/REC-SVG-20010904/DTD/svg10.dtd">
<svg version="1.0" xmlns="http://www.w3.org/2000/svg"
 width="512.000000pt" height="512.000000pt" viewBox="0 0 512.000000 512.000000"
 preserveAspectRatio="xMidYMid meet">
<metadata>
Created by potrace 1.16, written by Peter Selinger 2001-2019
</metadata>
<g transform="translate(0.000000,512.000000) scale(0.100000,-0.100000)"
fill="#000000" stroke="none">
<path d="M3577 4656 c-32 -13 -64 -29 -72 -36 -10 -9 -57 -8 -197 1 -305 20
-573 -6 -778 -76 -155 -53 -332 -179 -557 -399 -111 -107 -113 -109 -113 -77
0 61 -107 95 -163 51 -49 -39 -46 -128 6 -187 l30 -34 -43 -44 c-61 -63 -404
-245 -575 -306 -73 -26 -153 -56 -178 -67 -136 -60 -313 -212 -398 -342 -61
-92 -150 -265 -197 -380 -44 -109 -51 -199 -27 -342 9 -57 23 -112 30 -124 7
-11 18 -39 24 -62 11 -38 9 -46 -16 -94 -48 -93 -32 -236 38 -342 47 -70 128
-155 129 -134 0 15 5 14 36 -7 29 -20 48 -24 93 -23 49 1 69 -5 166 -54 248
-125 601 -269 897 -367 67 -22 99 -38 103 -51 15 -47 191 -72 722 -100 266
-15 311 -9 447 60 118 59 282 174 311 217 15 23 30 33 59 37 153 25 242 133
326 391 18 55 37 105 42 112 5 7 6 18 2 24 -4 7 -3 9 3 6 5 -3 16 3 24 15 8
11 24 24 36 28 32 13 120 124 193 246 36 59 100 158 143 218 196 281 253 360
323 446 44 56 74 102 74 116 0 17 4 22 15 18 27 -11 66 26 96 91 20 42 39 111
55 202 14 76 32 167 40 203 30 132 45 238 51 365 7 159 -7 258 -47 341 -36 74
-81 107 -178 132 -37 9 -68 17 -70 18 -1 0 4 14 13 30 8 16 15 48 15 72 l0 43
38 -7 c20 -3 68 -12 105 -20 38 -8 70 -14 73 -14 2 0 4 -13 4 -30 0 -66 59
-15 85 73 26 88 15 108 -37 68 -25 -20 -26 -20 -144 -1 -296 48 -640 80 -845
80 -112 0 -119 1 -119 20 0 26 -21 25 -93 -4z m78 -36 c4 -6 -6 -10 -22 -10
-22 0 -25 2 -13 10 19 12 27 12 35 0z m540 -26 c138 -13 380 -50 497 -75 30
-7 48 -16 48 -25 0 -17 18 -19 -151 17 -229 48 -439 78 -639 90 -102 6 -187
13 -190 16 -8 9 266 -6 435 -23z m-650 -20 c263 -26 624 -89 690 -120 35 -16
97 -73 174 -159 29 -33 48 -53 42 -44 -10 15 -6 15 51 3 35 -8 89 -19 121 -25
105 -19 119 -54 123 -304 1 -103 -1 -164 -5 -142 -13 62 -25 61 -68 -5 -37
-60 -62 -142 -133 -433 -35 -143 -67 -263 -72 -266 -6 -3 -10 -10 -11 -15 -1
-5 -8 -8 -14 -8 -19 2 -155 -127 -149 -141 2 -7 -9 -26 -26 -41 l-30 -29 17
40 c9 22 19 49 22 60 7 30 -26 -32 -52 -97 -13 -31 -52 -95 -88 -141 -36 -47
-64 -87 -61 -90 3 -3 -9 -15 -25 -26 -17 -12 -30 -27 -28 -32 1 -6 -6 -16 -16
-22 -15 -10 -22 -8 -38 12 -24 30 -25 67 0 80 10 6 47 43 81 83 l64 73 -82
-79 c-45 -44 -84 -77 -88 -74 -3 4 -1 36 5 71 6 35 10 88 9 118 -1 44 -2 46
-5 14 -1 -22 -6 -65 -9 -95 l-7 -55 -18 95 c-9 52 -24 123 -32 157 l-15 62 47
76 46 77 6 -69 c5 -58 6 -52 6 42 0 61 -2 99 -6 85 -3 -14 -22 -46 -41 -73
l-34 -47 -14 27 c-18 35 -42 63 -54 63 -10 0 -42 -70 -35 -77 3 -2 14 11 27
29 l22 33 -8 -30 c-11 -45 -9 -64 15 -129 12 -32 31 -115 42 -185 11 -69 27
-155 36 -190 18 -72 58 -126 85 -116 9 4 44 46 78 95 62 89 100 132 100 113 0
-21 -199 -328 -261 -404 -21 -25 -65 -86 -98 -134 -59 -86 -60 -87 -57 -49 2
22 5 41 6 44 1 3 2 8 1 13 -1 4 6 49 14 100 26 161 12 320 -32 369 -50 56
-127 -8 -219 -179 -32 -59 -61 -110 -66 -111 -4 -2 -6 -8 -3 -12 3 -5 -2 -26
-11 -47 -57 -134 -146 -418 -170 -541 -14 -75 -28 -146 -30 -157 -3 -11 -45
-49 -94 -84 -50 -36 -127 -96 -171 -133 -86 -73 -113 -89 -193 -119 l-51 -19
43 4 c23 2 60 13 82 24 22 11 40 16 40 12 0 -14 -74 -43 -120 -48 l-46 -4 4
98 c5 126 -24 485 -41 501 -13 12 -215 -2 -230 -17 -5 -4 36 -11 90 -15 111
-8 133 -16 133 -48 0 -22 -8 -24 -152 -46 -84 -13 -166 -28 -183 -34 -34 -11
-67 -37 -47 -37 7 0 -7 -35 -32 -83 -24 -45 -55 -104 -69 -130 -22 -42 -39
-57 -134 -114 -59 -36 -110 -67 -112 -69 -14 -12 22 -10 174 12 239 34 545 74
567 74 33 0 22 -49 -21 -90 -36 -35 -45 -38 -132 -49 -215 -25 -561 -46 -624
-36 -32 4 -58 17 -83 39 -20 19 -53 37 -72 41 -59 13 -397 133 -565 202 -175
71 -488 219 -534 252 -16 12 -45 21 -65 21 -44 0 -156 60 -207 111 -69 69 -88
193 -45 284 27 58 27 58 54 -80 20 -102 72 -228 114 -272 38 -40 39 -24 3 26
-38 52 -98 203 -93 230 3 10 14 -1 32 -31 41 -71 43 -58 2 15 -20 35 -46 105
-59 155 -13 51 -22 92 -21 92 1 0 19 -23 40 -52 21 -28 40 -46 42 -40 5 15
-29 78 -77 141 -23 30 -41 58 -41 63 0 21 20 3 64 -57 26 -36 50 -65 52 -65 8
0 -106 176 -135 209 -19 22 -21 36 -20 115 1 49 7 105 13 124 l12 35 33 -54
c29 -48 120 -178 143 -203 5 -6 8 -6 8 1 0 7 -34 63 -76 125 -42 62 -80 124
-85 137 -10 25 4 85 22 97 10 6 63 -49 135 -143 44 -55 55 -56 68 -2 7 30 28
39 100 39 l49 0 -7 -46 c-3 -26 -6 -88 -6 -138 l0 -91 -52 -30 c-78 -46 -144
-114 -152 -157 -4 -21 0 -108 9 -194 11 -112 13 -160 5 -169 -8 -10 -5 -17 12
-29 32 -23 45 -20 122 23 l69 39 33 -21 c37 -24 45 -42 15 -32 -11 3 -22 1
-26 -4 -4 -7 1 -8 11 -4 13 5 15 3 9 -8 -7 -11 -3 -10 15 2 23 15 29 15 90 -8
36 -14 67 -26 69 -29 2 -2 -2 -11 -10 -21 -9 -11 -10 -14 -1 -9 6 4 12 3 12
-1 0 -5 10 -10 22 -10 13 -1 24 -7 26 -12 2 -5 10 -7 19 -4 9 4 14 2 11 -3 -4
-5 7 -10 23 -11 15 -1 31 3 35 9 5 7 0 9 -14 6 -14 -4 -20 -2 -15 5 4 7 0 8
-11 4 -11 -4 -15 -3 -10 4 4 8 -1 9 -16 4 -16 -5 -20 -4 -15 5 5 9 2 10 -14 5
-13 -4 -21 -2 -21 5 0 6 -6 8 -13 4 -9 -5 -9 -4 -1 5 10 11 78 -8 184 -52 14
-6 28 -10 33 -9 4 1 7 -3 7 -9 0 -7 -7 -8 -17 -4 -41 17 -56 18 -48 5 5 -9 4
-11 -4 -6 -6 4 -9 12 -6 17 4 5 2 9 -4 9 -5 0 -12 -4 -16 -9 -8 -15 28 -31 56
-25 20 5 21 4 9 -6 -12 -9 -11 -10 9 -5 15 5 21 3 17 -3 -7 -11 21 -25 35 -16
5 3 19 2 30 -1 17 -6 19 -9 8 -16 -9 -7 -4 -8 16 -3 23 4 26 3 15 -5 -27 -19
12 -13 40 6 l25 17 -19 -22 c-21 -25 -6 -31 18 -7 29 29 29 15 0 -16 -27 -30
-27 -31 -4 -18 13 8 30 20 36 28 12 15 34 7 34 -11 0 -6 -8 -21 -17 -32 -10
-12 -11 -15 -3 -8 19 17 33 15 26 -3 -4 -10 6 -7 28 10 40 30 62 33 26 3 l-25
-21 23 8 c22 6 23 5 13 -14 -8 -14 -8 -21 -1 -21 5 0 10 5 10 10 0 6 3 9 8 8
14 -4 52 14 47 22 -3 4 5 6 17 2 21 -5 21 -5 -3 -15 -20 -9 -21 -11 -6 -14 10
-3 24 1 32 7 9 8 15 8 15 2 0 -6 -6 -13 -12 -15 -8 -3 -5 -6 5 -6 10 -1 28 4
40 10 21 10 21 10 3 -5 -23 -18 -6 -21 27 -5 22 10 22 10 2 -7 l-20 -16 20 5
c11 2 29 8 40 12 13 4 12 1 -5 -9 -18 -11 -20 -15 -8 -16 25 0 49 11 42 21 -6
10 17 12 40 3 8 -3 30 -29 47 -56 26 -40 45 -56 86 -74 53 -24 69 -44 36 -44
-10 0 -47 -14 -81 -30 -35 -17 -71 -30 -81 -30 -27 0 -362 116 -566 197 -104
41 -270 113 -368 160 l-177 86 -48 -15 -47 -16 35 -1 c22 -1 84 -26 170 -70
164 -84 294 -143 505 -228 184 -75 504 -185 517 -177 4 3 8 16 8 30 0 20 10
29 51 48 42 20 57 22 86 14 19 -5 37 -7 40 -4 7 7 -61 240 -104 356 -60 160
-188 401 -225 421 -11 6 -124 39 -251 74 -258 71 -493 150 -610 205 l-47 22 0
67 c0 59 16 200 23 208 2 1 55 -13 118 -33 125 -39 486 -139 731 -203 86 -23
193 -46 238 -52 73 -9 203 -48 222 -67 4 -4 -32 -31 -80 -60 -48 -30 -100 -65
-117 -79 -24 -21 -25 -23 -5 -11 127 75 252 146 460 263 355 199 432 246 765
464 447 294 495 324 500 319 3 -3 -39 -38 -92 -79 -54 -40 -174 -135 -268
-209 -374 -300 -345 -280 -612 -413 -136 -69 -288 -148 -338 -176 -49 -29 -97
-50 -105 -48 -8 3 -24 8 -35 12 -11 3 -7 -1 9 -10 l28 -17 -30 -31 c-43 -45
-49 -77 -23 -130 39 -81 31 -80 251 -52 251 31 440 48 446 42 6 -5 -21 -62
-40 -87 -18 -23 -37 -70 -27 -70 9 0 60 87 129 220 55 107 40 100 179 81 45
-6 98 -18 117 -26 32 -14 35 -18 29 -45 -7 -39 3 -39 87 6 52 27 71 43 81 67
7 18 19 41 28 51 9 11 -23 -2 -79 -32 l-96 -51 -63 19 c-34 11 -82 20 -104 21
-23 0 -59 6 -80 12 l-37 12 59 78 c32 43 118 146 190 228 89 100 126 149 114
149 -10 0 -69 -15 -132 -34 -101 -30 -118 -39 -160 -80 -26 -25 -50 -46 -54
-46 -4 0 10 16 31 36 l37 35 -35 -17 c-19 -9 -57 -34 -85 -54 -61 -45 -95 -63
-102 -56 -4 3 2 16 13 27 17 19 401 341 634 532 190 156 233 210 234 294 l1
54 98 44 c58 26 122 64 158 94 57 47 61 49 77 33 11 -10 13 -18 6 -20 -13 -3
-44 -66 -44 -89 0 -24 40 -83 56 -83 7 0 15 10 18 23 2 12 10 49 17 82 l14 60
55 2 c116 5 160 14 180 36 17 18 20 18 20 4 0 -9 3 -17 8 -17 16 1 72 61 72
79 0 22 -25 45 -40 36 -5 -3 -10 1 -10 10 0 9 -12 29 -27 44 -22 21 -45 30
-105 40 l-77 14 47 58 c26 32 52 58 58 58 6 1 40 -27 77 -62 61 -59 66 -67 70
-113 l3 -49 2 49 c2 49 1 50 -74 123 l-75 73 50 70 c28 38 51 80 51 92 0 32
-72 147 -125 198 -45 44 -47 45 -108 43 -35 -1 -98 -13 -145 -28 l-84 -26 7
-47 c3 -26 1 -130 -4 -232 -12 -213 -64 -510 -90 -510 -11 0 -12 10 -7 48 32
219 46 347 51 453 15 311 16 279 -11 279 -22 0 -23 2 -13 27 13 35 34 58 83
94 49 36 39 38 -15 3 -22 -14 -54 -47 -71 -75 -31 -49 -31 -49 -84 -49 -29 0
-290 24 -581 54 -290 30 -580 60 -643 66 -149 15 -154 17 -107 41 21 11 43 17
49 13 7 -5 8 -3 3 6 -6 10 -4 12 8 7 10 -4 17 -2 17 4 0 6 7 9 15 5 8 -3 15
-1 15 5 0 6 7 9 15 5 8 -3 15 -2 15 3 0 9 134 37 245 51 95 12 516 2 700 -16z
m695 -34 c131 -20 208 -35 216 -43 3 -2 -1 -37 -7 -76 l-12 -72 -31 7 c-17 4
-49 25 -71 49 -71 75 -80 79 -320 131 l-160 35 130 -6 c72 -3 186 -14 255 -25z
m537 -28 c-15 -14 -27 -21 -27 -15 0 15 41 55 49 48 3 -3 -7 -18 -22 -33z
m-2318 -82 c3 0 -32 -25 -77 -56 -104 -71 -244 -193 -282 -246 -16 -22 -43
-75 -59 -117 -16 -42 -45 -110 -65 -151 -20 -41 -36 -82 -36 -92 0 -9 -3 -19
-7 -21 -10 -6 -172 48 -185 61 -28 28 320 390 526 549 111 85 120 90 150 82
17 -5 33 -9 35 -9z m164 -75 c-3 -9 -8 -14 -10 -11 -3 3 -2 9 2 15 9 16 15 13
8 -4z m1564 -36 c22 -45 29 -74 16 -66 -5 3 -33 7 -63 11 -30 3 -78 9 -107 12
-44 5 -52 4 -56 -12 -3 -11 -5 -2 -6 18 l-1 37 68 20 c84 24 104 29 117 27 6
-2 20 -22 32 -47z m60 22 c15 -15 37 -43 47 -61 l19 -33 -24 6 c-13 4 -34 7
-45 7 -12 0 -24 8 -27 18 -3 9 -12 34 -21 55 -16 36 -15 37 3 37 11 0 32 -13
48 -29z m-1654 -46 c-9 -19 -20 -35 -25 -35 -4 0 2 16 13 35 12 19 23 35 25
35 2 0 -4 -16 -13 -35z m1832 25 c-4 -6 -1 -19 6 -28 11 -13 8 -12 -9 2 -26
22 -28 36 -6 36 8 0 12 -5 9 -10z m102 -6 c-3 -3 -12 -4 -19 -1 -8 3 -5 6 6 6
11 1 17 -2 13 -5z m-660 -146 c-2 -29 -3 -8 -3 47 0 55 1 79 3 53 2 -26 2 -71
0 -100z m769 107 c22 -13 46 -30 53 -38 10 -13 7 -13 -26 -1 -21 7 -46 13 -55
14 -11 0 -18 8 -18 19 0 12 -11 24 -27 30 l-28 11 30 -6 c17 -3 48 -16 71 -29z
m-2089 -78 l-21 -52 -101 -31 c-55 -17 -109 -34 -120 -38 -11 -3 2 4 28 17 26
12 45 26 41 30 -4 4 0 7 9 7 9 0 20 6 24 14 10 17 102 82 134 95 13 5 25 10
25 10 1 1 -8 -23 -19 -52z m1813 -76 c-29 -42 -36 -39 -8 3 13 19 24 33 26 31
3 -2 -6 -18 -18 -34z m-2566 -1 c7 0 20 -6 30 -13 16 -12 14 -15 -24 -42 -41
-28 -42 -31 -36 -72 9 -65 -13 -66 -59 -3 -14 19 -25 46 -25 60 0 38 55 85 88
74 8 -2 19 -4 26 -4z m2063 -112 c-2 -18 -4 -6 -4 27 0 33 2 48 4 33 2 -15 2
-42 0 -60z m-10 -110 c-2 -13 -4 -3 -4 22 0 25 2 35 4 23 2 -13 2 -33 0 -45z
m383 29 c0 -2 -10 -12 -22 -23 l-23 -19 19 23 c18 21 26 27 26 19z m-2450 -10
c0 -2 -10 -12 -22 -23 l-23 -19 19 23 c18 21 26 27 26 19z m-67 -81 c-10 -13
-20 -22 -22 -20 -4 4 29 44 36 44 2 0 -4 -11 -14 -24z m2124 -23 c-3 -10 -5
-2 -5 17 0 19 2 27 5 18 2 -10 2 -26 0 -35z m490 5 c54 -13 65 -27 61 -75 -3
-33 -8 -40 -42 -57 -32 -16 -63 -20 -155 -20 l-116 -1 -3 38 c-4 41 24 95 61
123 24 17 110 14 194 -8z m-1892 -29 c44 -5 98 -10 120 -10 38 -1 38 -1 10 -8
l-30 -7 40 -8 c63 -12 137 -57 121 -73 -12 -12 -67 -6 -278 30 -113 20 -235
39 -270 43 -96 10 -101 20 -17 32 98 13 206 13 304 1z m-635 -47 c3 -2 -6 -1
-20 3 -14 4 -34 16 -45 27 -18 17 -15 17 20 -3 22 -12 42 -25 45 -27z m2027
11 c-3 -10 -5 -4 -5 12 0 17 2 24 5 18 2 -7 2 -21 0 -30z m-1160 11 c-3 -3
-12 -4 -19 -1 -8 3 -5 6 6 6 11 1 17 -2 13 -5z m-1009 -63 c20 -10 62 -26 92
-34 90 -26 301 -69 315 -64 6 3 43 -1 81 -9 114 -24 777 -131 964 -155 250
-33 489 -29 587 8 23 9 17 -90 -7 -120 -11 -14 -96 -73 -190 -131 -93 -58
-267 -171 -387 -249 -308 -202 -395 -256 -675 -416 -340 -194 -298 -179 -393
-141 -50 20 -110 35 -160 40 -105 11 -623 148 -982 260 -81 25 -103 35 -103
50 0 31 50 192 86 274 76 176 268 410 467 568 48 39 87 73 87 75 0 3 -6 1 -12
-4 -7 -5 -42 -31 -78 -58 -174 -130 -315 -282 -422 -455 -61 -98 -142 -279
-161 -360 l-12 -50 -67 0 -68 0 6 43 c12 79 75 279 108 346 42 81 136 216 179
254 93 82 184 141 260 169 77 28 261 119 372 185 48 28 51 29 63 11 7 -10 30
-27 50 -37z m263 -25 c9 0 16 -6 16 -12 0 -8 -12 -8 -44 3 -23 8 -43 19 -43
25 0 5 -4 7 -9 4 -5 -3 -20 3 -32 14 -20 17 -14 16 36 -6 33 -15 67 -27 76
-28z m2521 37 c-6 -3 -10 -9 -6 -14 3 -5 -2 -9 -10 -9 -8 0 -20 -8 -25 -17 -6
-10 -11 -14 -11 -9 0 14 52 67 59 60 3 -4 0 -9 -7 -11z m-625 -35 c-3 -7 -5
-2 -5 12 0 14 2 19 5 13 2 -7 2 -19 0 -25z m120 -10 c-3 -8 -6 -5 -6 6 -1 11
2 17 5 13 3 -3 4 -12 1 -19z m-130 -55 c-3 -10 -5 -4 -5 12 0 17 2 24 5 18 2
-7 2 -21 0 -30z m-934 0 c-7 -2 -19 -2 -25 0 -7 3 -2 5 12 5 14 0 19 -2 13 -5z
m924 -70 c-3 -10 -5 -4 -5 12 0 17 2 24 5 18 2 -7 2 -21 0 -30z m868 -22 c-21
-43 -29 -39 -8 4 9 19 18 33 21 31 2 -2 -4 -18 -13 -35z m-1348 -7 c-3 -3 -12
-4 -19 -1 -8 3 -5 6 6 6 11 1 17 -2 13 -5z m46 -11 c-7 -2 -19 -2 -25 0 -7 3
-2 5 12 5 14 0 19 -2 13 -5z m-2364 -44 c-35 -23 -85 -59 -110 -80 -25 -21
-49 -36 -52 -33 -21 22 -181 -106 -229 -184 -17 -28 -19 -43 -14 -89 3 -30 11
-63 16 -73 7 -13 6 -20 -2 -22 -17 -6 -19 -58 -2 -89 7 -15 14 -36 14 -46 0
-16 -2 -16 -21 3 -25 26 -53 135 -32 127 19 -7 16 25 -6 66 l-18 35 -44 -90
c-23 -49 -44 -92 -46 -95 -2 -3 14 -11 36 -19 23 -7 43 -22 50 -36 5 -12 22
-30 36 -40 24 -15 38 -53 14 -38 -8 4 -9 -1 -4 -17 5 -17 -13 -4 -64 46 -39
38 -71 75 -71 83 0 7 -5 10 -11 7 -37 -23 126 265 200 352 69 82 219 191 326
237 105 45 111 44 34 -5z m2424 34 c-7 -2 -19 -2 -25 0 -7 3 -2 5 12 5 14 0
19 -2 13 -5z m1217 -17 c0 -2 -8 -10 -17 -17 -16 -13 -17 -12 -4 4 13 16 21
21 21 13z m18 -93 c-10 -2 -28 -2 -40 0 -13 2 -5 4 17 4 22 1 32 -1 23 -4z
m-3842 -91 l-28 -27 12 25 c14 27 31 42 39 34 3 -2 -8 -17 -23 -32z m3831 -29
c-3 -10 -5 -4 -5 12 0 17 2 24 5 18 2 -7 2 -21 0 -30z m-987 13 c0 -2 -8 -10
-17 -17 -16 -13 -17 -12 -4 4 13 16 21 21 21 13z m-2914 -38 c4 -6 3 -8 -3 -5
-6 4 -24 -3 -39 -15 l-29 -22 24 27 c27 30 36 33 47 15z m3881 -33 c-1 -13 -6
-27 -10 -31 -11 -11 -8 -36 3 -29 6 3 4 -6 -2 -22 l-13 -28 -3 27 c-3 27 15
108 24 108 2 0 3 -11 1 -25z m-3892 -15 c-15 -16 -33 -26 -39 -23 -6 4 -6 8 2
11 7 2 12 10 12 17 0 12 15 20 44 24 6 0 -3 -12 -19 -29z m-65 -69 c-5 -11
-10 -37 -10 -59 0 -22 -3 -54 -6 -71 -6 -29 -8 -30 -20 -14 -21 28 -16 70 12
119 25 43 45 63 24 25z m3924 -40 c-7 -7 -12 3 -19 34 l-6 30 14 -30 c8 -16
13 -32 11 -34z m-725 7 c0 -27 -2 -29 -8 -13 -5 11 -6 26 -4 33 8 21 13 13 12
-20z m541 -78 c-29 -36 -110 -108 -110 -97 0 5 133 137 138 137 2 0 -10 -18
-28 -40z m-3873 -22 c-3 -7 -5 -2 -5 12 0 14 2 19 5 13 2 -7 2 -19 0 -25z
m3858 -89 c-19 -27 -80 -119 -135 -205 -56 -86 -127 -191 -159 -233 -31 -42
-87 -125 -123 -186 -68 -113 -173 -261 -204 -286 -19 -15 -4 9 148 241 52 80
107 169 121 198 15 29 52 95 82 146 31 51 64 115 74 143 25 69 68 129 141 197
50 45 65 54 76 45 12 -10 8 -19 -21 -60z m-3760 22 c-8 -14 -25 -14 -25 0 0 5
5 7 10 4 6 -3 10 -1 10 6 0 7 3 10 6 6 3 -3 3 -10 -1 -16z m2565 -261 c-25
-22 -49 -40 -54 -40 -4 0 14 18 40 40 63 52 73 51 14 0z m-70 -42 c0 -7 -38
-46 -85 -87 -47 -40 -84 -76 -81 -79 3 -3 11 0 18 5 7 6 28 13 47 17 l35 6
-25 -26 c-19 -21 -30 -24 -57 -19 -31 6 -33 5 -23 -14 6 -11 11 -28 10 -38 -1
-12 -3 -10 -8 7 -9 31 -51 56 -77 45 -10 -4 -37 -9 -59 -11 -22 -3 -59 -10
-83 -17 l-42 -13 31 -42 c17 -23 36 -42 42 -42 9 0 9 2 0 8 -21 13 -25 56 -8
77 16 19 16 19 5 -3 -6 -12 -8 -32 -5 -43 9 -27 51 -52 76 -46 16 4 18 3 9 -8
-15 -18 -65 -10 -103 17 l-27 19 -26 -31 c-32 -37 -75 -41 -98 -8 -9 12 -16
27 -16 32 0 6 7 1 15 -11 42 -60 138 -7 97 54 -16 25 -37 28 -79 12 -15 -6
-41 -13 -58 -14 -88 -9 -154 -28 -217 -62 -91 -49 -98 -60 -68 -108 25 -41 20
-40 165 -20 31 4 36 3 20 -5 -26 -13 -176 -38 -193 -32 -17 6 -44 60 -37 72 3
6 1 10 -4 10 -17 0 -13 16 13 47 13 16 69 53 123 82 54 30 134 75 178 101 91
54 205 113 205 105 0 -2 -24 -17 -52 -31 -75 -37 -190 -105 -186 -109 2 -2 37
5 78 14 41 10 140 29 220 41 142 23 146 25 195 65 44 37 125 95 132 95 2 0 3
-6 3 -12z m548 -59 c3 -11 2 -11 -7 1 -9 12 -11 13 -11 1 0 -8 -3 -11 -7 -8
-3 4 -12 2 -20 -4 -9 -8 -13 -8 -13 -1 0 13 31 33 44 29 6 -2 11 -10 14 -18z
m21 -115 c24 -30 44 -97 38 -122 -3 -11 -5 -8 -6 8 -2 40 -37 107 -60 115 -29
9 -66 -19 -90 -68 -12 -23 -21 -38 -21 -33 0 6 -7 1 -15 -10 -13 -16 -13 -14
0 15 23 46 94 121 116 121 9 0 27 -12 38 -26z m-807 -107 c23 -17 30 -18 45
-7 10 8 8 3 -4 -10 l-23 -24 -29 28 c-32 30 -46 69 -34 89 5 7 10 -1 13 -22 3
-21 15 -41 32 -54z m757 -19 c-24 -84 -60 -158 -84 -178 -10 -8 -6 3 9 24 24
36 62 142 82 226 4 20 9 28 11 18 3 -9 -6 -50 -18 -90z m-720 83 c19 -12 6
-41 -18 -41 -23 0 -35 15 -27 35 6 17 24 19 45 6z m-2125 -28 c8 -10 30 -38
48 -62 32 -43 39 -46 181 -94 81 -27 145 -52 142 -56 -2 -4 12 -15 32 -25 28
-13 38 -14 44 -5 6 10 48 3 186 -30 120 -29 194 -42 225 -40 25 2 44 1 42 -2
-2 -4 -44 -30 -94 -58 -66 -38 -100 -51 -129 -51 -73 0 -578 159 -645 204 -15
9 -33 47 -56 112 -18 55 -35 105 -38 112 -7 19 46 15 62 -5z m1846 -18 c0 -1
-6 -7 -13 -13 -10 -8 -13 -6 -14 8 -1 13 3 17 13 13 8 -3 14 -6 14 -8z m-1910
-72 c36 -121 48 -141 97 -159 61 -24 48 -27 -23 -5 -90 27 -244 113 -244 137
0 22 64 68 119 85 14 4 27 8 28 8 1 1 11 -29 23 -66z m1750 42 c9 -11 10 -18
1 -28 -6 -8 -8 -17 -4 -20 3 -4 -3 -7 -15 -7 -25 0 -39 35 -22 55 16 19 24 19
40 0z m175 5 c-3 -5 -12 -10 -18 -10 -7 0 -6 4 3 10 19 12 23 12 15 0z m-257
-20 c-20 -31 1 -75 35 -75 15 1 27 -3 27 -7 0 -14 -48 -8 -64 8 -19 18 -21 65
-4 82 18 18 20 15 6 -8z m119 -22 c-3 -7 -5 -2 -5 12 0 14 2 19 5 13 2 -7 2
-19 0 -25z m1030 10 c-3 -8 -6 -5 -6 6 -1 11 2 17 5 13 3 -3 4 -12 1 -19z
m-51 -49 c-14 -30 -25 -50 -25 -46 -1 12 41 108 45 104 3 -2 -7 -28 -20 -58z
m-991 2 c-11 -36 21 -53 87 -46 35 4 58 3 58 -3 0 -11 -48 -22 -101 -22 -32 0
-41 5 -53 28 -10 20 -11 31 -2 45 14 22 19 22 11 -2z m1032 -3 c-3 -8 -6 -5
-6 6 -1 11 2 17 5 13 3 -3 4 -12 1 -19z m-669 -22 c-17 -13 -198 -40 -207 -31
-11 12 17 20 102 31 127 16 125 16 105 0z m-1676 -5 c-10 -6 -7 -12 12 -25 34
-22 36 -60 4 -50 -28 8 -33 12 -25 20 4 4 13 1 22 -6 20 -17 20 4 -1 24 -8 9
-20 16 -25 16 -5 0 -9 7 -9 15 0 8 8 15 18 15 13 0 14 -2 4 -9z m2335 -13 c-3
-8 -6 -5 -6 6 -1 11 2 17 5 13 3 -3 4 -12 1 -19z m203 5 c0 -10 -4 -14 -8 -8
-4 6 -11 13 -16 18 -5 4 -2 7 7 7 10 0 17 -8 17 -17z m-2500 -3 c0 -5 -2 -10
-4 -10 -3 0 -8 5 -11 10 -3 6 -1 10 4 10 6 0 11 -4 11 -10z m2469 -67 c-26
-27 -90 -67 -127 -78 -22 -6 -23 -5 -12 14 6 12 14 20 18 18 4 -3 36 17 72 43
66 48 92 49 49 3z m-3152 -25 c-3 -8 -6 -5 -6 6 -1 11 2 17 5 13 3 -3 4 -12 1
-19z m2975 -10 c-8 -8 -9 -4 -5 13 4 13 8 18 11 10 2 -7 -1 -18 -6 -23z m-2
-77 c-5 -10 -7 -21 -4 -23 2 -3 -2 -11 -11 -18 -13 -11 -15 -7 -15 26 0 29 3
35 10 24 8 -13 10 -12 10 3 0 10 5 15 10 12 7 -4 7 -12 0 -24z m178 -29 c-8
-38 -14 -50 -20 -40 -7 9 -8 5 -4 -12 3 -14 -1 -48 -8 -75 -12 -47 -13 -48
-20 -22 -4 16 0 49 9 79 8 28 15 63 16 77 l1 26 8 -25 c7 -23 8 -23 9 -3 1 23
12 56 16 51 2 -2 -2 -27 -7 -56z m-3141 1 c-3 -10 -5 -2 -5 17 0 19 2 27 5 18
2 -10 2 -26 0 -35z m1192 -60 c19 -32 40 -67 48 -79 l13 -20 -118 13 c-75 9
-168 28 -259 55 -160 47 -187 63 -39 23 l96 -26 98 45 c53 24 104 45 112 45 9
1 31 -25 49 -56z m1863 16 c-4 -39 -5 -39 -23 -23 -28 25 -25 64 4 64 20 0 22
-4 19 -41z m-12 -92 c22 -73 28 -107 19 -107 -5 0 -9 10 -9 23 -1 34 -34 101
-74 144 -20 22 -33 43 -29 47 13 12 80 -65 93 -107z m133 78 c-3 -9 -8 -14
-10 -11 -3 3 -2 9 2 15 9 16 15 13 8 -4z m-3166 -32 c-3 -10 -5 -4 -5 12 0 17
2 24 5 18 2 -7 2 -21 0 -30z m2810 15 c-3 -8 -6 -5 -6 6 -1 11 2 17 5 13 3 -3
4 -12 1 -19z m114 -53 c10 -20 10 -20 -5 -1 -15 19 -16 19 -17 -10 0 -16 -4
-38 -9 -49 -7 -16 -7 42 0 105 0 6 17 -18 31 -45z m-124 -147 c-2 -35 -3 -9
-3 57 0 66 1 94 3 63 2 -32 2 -86 0 -120z m153 87 c0 -5 -5 -3 -10 5 -5 8 -10
20 -10 25 0 6 5 3 10 -5 5 -8 10 -19 10 -25z m-61 -42 c-1 -10 -5 -29 -9 -43
-7 -21 -8 -19 -9 18 -1 23 4 42 9 42 6 0 10 -8 9 -17z m68 -60 c-2 -16 -4 -5
-4 22 0 28 2 40 4 28 2 -13 2 -35 0 -50z m-2297 -3 c-24 -15 -36 -11 -14 4 10
8 21 12 24 10 2 -3 -2 -9 -10 -14z m40 0 c0 -5 -5 -10 -11 -10 -5 0 -7 5 -4
10 3 6 8 10 11 10 2 0 4 -4 4 -10z m2327 -37 c6 -16 -60 -107 -81 -111 -10 -2
-23 2 -30 9 -8 9 -7 11 7 6 13 -5 17 -1 17 18 0 14 5 25 11 25 6 0 8 -10 5
-22 -5 -18 -3 -17 7 4 7 14 21 36 32 49 11 12 14 19 8 15 -7 -4 -13 -3 -13 2
0 22 30 27 37 5z m-1757 -3 c13 -8 13 -10 -2 -10 -9 0 -20 5 -23 10 -8 13 5
13 25 0z m864 1 c4 -5 -6 -12 -21 -15 -60 -13 -235 -36 -265 -36 -62 1 -4 20
119 39 140 23 160 24 167 12z m-1248 -36 c-11 -8 -22 -12 -25 -9 -6 6 19 24
34 24 6 -1 1 -7 -9 -15z m1921 -17 c-3 -8 -6 -5 -6 6 -1 11 2 17 5 13 3 -3 4
-12 1 -19z m-1856 -15 c-12 -20 -14 -14 -5 12 4 9 9 14 11 11 3 -2 0 -13 -6
-23z m1953 1 c3 -8 2 -12 -4 -9 -6 3 -10 10 -10 16 0 14 7 11 14 -7z m-754
-107 c0 -14 -138 -38 -305 -53 -68 -6 -70 -6 -52 12 14 15 48 22 170 35 83 9
160 17 170 18 9 0 17 -5 17 -12z m385 -65 c-41 -38 -148 -160 -234 -266 -19
-23 -10 -19 54 25 65 44 273 177 297 190 56 30 -10 -25 -121 -99 -190 -129
-255 -161 -352 -173 -46 -5 -95 -8 -109 -5 -14 2 -65 6 -115 7 l-90 2 105 6
c103 6 107 7 160 45 29 21 89 57 133 79 49 24 82 47 85 59 4 15 7 17 13 6 7
-10 10 -8 15 7 5 17 189 165 204 164 3 0 -18 -21 -45 -47z"/>
<path d="M4395 4044 c-9 -15 -12 -23 -6 -20 11 7 35 46 28 46 -3 0 -12 -12
-22 -26z"/>
<path d="M4359 3993 c-13 -16 -12 -17 4 -4 16 13 21 21 13 21 -2 0 -10 -8 -17
-17z"/>
<path d="M4442 3630 c0 -14 2 -19 5 -12 2 6 2 18 0 25 -3 6 -5 1 -5 -13z"/>
<path d="M4432 3565 c0 -16 2 -22 5 -12 2 9 2 23 0 30 -3 6 -5 -1 -5 -18z"/>
<path d="M4422 3510 c0 -14 2 -19 5 -12 2 6 2 18 0 25 -3 6 -5 1 -5 -13z"/>
<path d="M4412 3460 c0 -14 2 -19 5 -12 2 6 2 18 0 25 -3 6 -5 1 -5 -13z"/>
<path d="M3922 3450 c0 -14 2 -19 5 -12 2 6 2 18 0 25 -3 6 -5 1 -5 -13z"/>
<path d="M4401 3414 c0 -11 3 -14 6 -6 3 7 2 16 -1 19 -3 4 -6 -2 -5 -13z"/>
<path d="M3931 3404 c0 -11 3 -14 6 -6 3 7 2 16 -1 19 -3 4 -6 -2 -5 -13z"/>
<path d="M4391 3374 c0 -11 3 -14 6 -6 3 7 2 16 -1 19 -3 4 -6 -2 -5 -13z"/>
<path d="M3942 3360 c0 -14 2 -19 5 -12 2 6 2 18 0 25 -3 6 -5 1 -5 -13z"/>
<path d="M4381 3334 c0 -11 3 -14 6 -6 3 7 2 16 -1 19 -3 4 -6 -2 -5 -13z"/>
<path d="M3951 3314 c0 -11 3 -14 6 -6 3 7 2 16 -1 19 -3 4 -6 -2 -5 -13z"/>
<path d="M3962 3265 c0 -16 2 -22 5 -12 2 9 2 23 0 30 -3 6 -5 -1 -5 -18z"/>
<path d="M4346 3224 c-4 -14 -5 -28 -3 -31 3 -2 8 8 11 23 4 14 5 28 3 31 -3
2 -8 -8 -11 -23z"/>
<path d="M4335 3071 c-6 -5 -17 -11 -25 -13 -8 -2 -30 -16 -49 -33 -36 -31
-115 -106 -97 -92 19 14 28 7 15 -10 -13 -16 -12 -17 3 -4 10 7 15 17 12 22
-3 5 3 9 12 9 10 0 28 10 41 22 20 19 25 20 33 8 8 -12 10 -10 10 7 0 13 12
32 30 44 29 22 47 49 32 49 -5 0 -12 -4 -17 -9z"/>
<path d="M3963 2945 c0 -38 2 -53 4 -32 2 20 2 52 0 70 -2 17 -4 1 -4 -38z"/>
<path d="M4149 2813 l-24 -28 28 24 c25 23 32 31 24 31 -2 0 -14 -12 -28 -27z"/>
<path d="M526 1917 c3 -10 9 -15 12 -12 3 3 0 11 -7 18 -10 9 -11 8 -5 -6z"/>
<path d="M870 1842 c8 -5 26 -13 40 -16 17 -5 20 -4 10 2 -8 5 -26 13 -40 16
-17 5 -20 4 -10 -2z"/>
<path d="M3062 1655 c-146 -92 -260 -191 -160 -139 88 45 300 203 273 203 -5
0 -57 -29 -113 -64z"/>
<path d="M1386 1634 l-19 -26 27 17 c14 10 26 21 26 26 0 16 -15 9 -34 -17z"/>
<path d="M3030 1532 c-117 -66 -173 -102 -167 -109 13 -13 243 116 262 148 11
18 -11 9 -95 -39z"/>
<path d="M1582 1556 c7 -7 19 -11 27 -8 11 4 10 7 -5 13 -29 12 -36 10 -22 -5z"/>
<path d="M1640 1540 c0 -5 5 -10 10 -10 6 0 10 5 10 10 0 6 -4 10 -10 10 -5 0
-10 -4 -10 -10z"/>
<path d="M1670 1530 c0 -5 9 -10 21 -10 11 0 17 5 14 10 -3 6 -13 10 -21 10
-8 0 -14 -4 -14 -10z"/>
<path d="M1733 1533 c-19 -7 -16 -20 5 -25 12 -4 18 1 19 13 2 19 -2 21 -24
12z"/>
<path d="M1668 3491 c-85 -36 -132 -66 -158 -98 -23 -29 -26 -54 -7 -50 7 1
13 -11 15 -30 3 -28 -2 -35 -40 -59 -40 -25 -70 -55 -63 -62 1 -2 56 35 121
82 117 83 274 219 274 237 0 18 -77 8 -142 -20z m-70 -136 c-3 -3 -9 2 -12 12
-6 14 -5 15 5 6 7 -7 10 -15 7 -18z"/>
<path d="M1424 3429 c-22 -11 -56 -36 -75 -55 -36 -37 -39 -56 -28 -180 l4
-42 22 31 c12 16 32 58 43 92 11 35 36 88 55 119 18 31 30 56 27 56 -4 -1 -25
-10 -48 -21z"/>
<path d="M2645 3281 c-138 -54 -315 -179 -340 -238 -9 -20 -13 -38 -11 -40 2
-3 17 2 34 11 16 8 75 26 131 40 92 23 116 34 234 109 73 46 151 95 175 108
55 30 40 37 -73 38 -65 0 -93 -5 -150 -28z m65 4 c0 -5 -68 -35 -79 -35 -8 1
61 39 72 40 4 0 7 -2 7 -5z m-110 -48 c0 -2 -20 -18 -45 -36 -25 -18 -45 -30
-45 -27 0 4 81 66 87 66 2 0 3 -1 3 -3z m-110 -80 c0 -2 -10 -12 -22 -23 l-23
-19 19 23 c18 21 26 27 26 19z m-70 -62 c-13 -14 -28 -25 -34 -25 -6 0 3 11
19 25 39 31 45 32 15 0z"/>
<path d="M2239 2182 c5 -10 18 -25 27 -33 11 -9 9 -2 -6 19 -26 35 -36 42 -21
14z"/>
<path d="M2460 2300 c0 -5 5 -10 10 -10 6 0 10 5 10 10 0 6 -4 10 -10 10 -5 0
-10 -4 -10 -10z"/>
<path d="M3661 1884 c0 -11 3 -14 6 -6 3 7 2 16 -1 19 -3 4 -6 -2 -5 -13z"/>
<path d="M2979 1333 c-13 -16 -12 -17 4 -4 9 7 17 15 17 17 0 8 -8 3 -21 -13z"/>
</g>
</svg>